<?xml version="1.0" encoding="utf-8"?>
<!-- Generator: Adobe Illustrator 16.0.0, SVG Export Plug-In . SVG Version: 6.00 Build 0)  -->
<!DOCTYPE svg PUBLIC "-//W3C//DTD SVG 1.1//EN" "http://www.w3.org/Graphics/SVG/1.1/DTD/svg11.dtd">
<svg version="1.1" id="Capa_1" xmlns="http://www.w3.org/2000/svg" xmlns:xlink="http://www.w3.org/1999/xlink" x="0px" y="0px"
	 width="800px" height="800px" viewBox="0 0 800 800" enable-background="new 0 0 800 800" xml:space="preserve">
<g>
	<path fill="#FFFFFF" d="M779.021,345.395c2.331,1.836,5.164,2.78,8.022,2.78c1.925,0,3.858-0.428,5.655-1.299
		c4.467-2.167,7.302-6.695,7.302-11.66v-69.114c0-3.971-1.819-7.722-4.938-10.179L584.092,89.704
		c-14.796-11.658-35.463-11.656-50.259,0l-79.405,62.563v-24.394c0-7.157-5.803-12.959-12.959-12.959h-55.292
		c-7.156,0-12.959,5.802-12.959,12.959v88.378l-50.353,39.672c-3.119,2.457-4.938,6.208-4.938,10.179v69.114
		c0,4.964,2.835,9.493,7.302,11.66c4.465,2.167,9.778,1.593,13.678-1.479l6.666-5.252v126.283l-120.876-95.235
		c-14.795-11.658-35.462-11.658-50.258,0L4.938,504.734C1.819,507.19,0,510.943,0,514.913v69.115c0,4.964,2.835,9.492,7.302,11.659
		c1.797,0.873,3.73,1.3,5.656,1.3c2.856,0,5.691-0.943,8.022-2.78l6.666-5.253v134.167H12.959C5.802,723.121,0,728.923,0,736.08
		c0,7.156,5.802,12.959,12.959,12.959h774.082c7.157,0,12.959-5.803,12.959-12.959c0-7.157-5.802-12.959-12.959-12.959h-14.687
		V340.142L779.021,345.395L779.021,345.395z M399.136,140.832h29.374v31.856l-29.374,23.143V140.832z M343.845,272.389
		l206.03-162.326c5.351-4.216,12.827-4.216,18.179,0l206.028,162.326v36.118L566.984,145.339c-2.352-1.854-5.186-2.78-8.021-2.78
		c-2.835,0-5.667,0.926-8.021,2.78L343.845,308.507V272.389z M25.918,521.201l164.562-129.653c5.351-4.216,12.828-4.216,18.179,0
		L345.572,499.42v36.119L207.589,426.824c-4.705-3.709-11.336-3.709-16.04,0L25.918,557.32V521.201L25.918,521.201z M53.563,568.534
		l146.004-115.032l146.004,115.034v154.587h-57.02V570.207c0-7.157-5.802-12.959-12.959-12.959H123.542
		c-7.157,0-12.959,5.802-12.959,12.959v152.916h-57.02V568.534L53.563,568.534z M136.501,638.456h126.134v29.373H136.501V638.456z
		 M262.635,612.538H136.501v-29.374h126.134V612.538z M136.501,693.747h126.134v29.374H136.501V693.747z M511.447,626.404
		c-0.287-0.02-0.575-0.044-0.864-0.044c-3.403,0-6.756,1.383-9.157,3.802c-2.419,2.401-3.802,5.754-3.802,9.157
		c0,3.404,1.383,6.756,3.802,9.158c2.401,2.419,5.754,3.801,9.157,3.801c0.289,0,0.577-0.023,0.864-0.043v70.886h-57.02V555.519
		h57.02V626.404z M746.437,723.121H537.365V542.56c0-7.157-5.803-12.959-12.959-12.959h-82.938c-7.157,0-12.959,5.802-12.959,12.959
		v180.562h-57.02V319.722l187.473-147.706l187.474,147.706V723.121z"/>
	<path fill="#FFFFFF" d="M593.521,666.102h82.938c7.156,0,12.959-5.802,12.959-12.959V542.56c0-7.157-5.803-12.959-12.959-12.959
		h-82.938c-7.157,0-12.959,5.802-12.959,12.959v110.583C580.562,660.3,586.363,666.102,593.521,666.102z M606.479,640.184v-43.196
		h57.02v43.196H606.479z M663.499,555.519v15.551h-57.02v-15.551H663.499z"/>
	<path fill="#FFFFFF" d="M593.521,472.581h82.938c7.156,0,12.959-5.802,12.959-12.959V349.039c0-7.157-5.803-12.959-12.959-12.959
		h-82.938c-7.157,0-12.959,5.802-12.959,12.959v110.583C580.562,466.779,586.363,472.581,593.521,472.581z M606.479,446.663v-43.196
		h57.02v43.196H606.479z M663.499,361.998v15.551h-57.02v-15.551H663.499z"/>
	<path fill="#FFFFFF" d="M524.406,336.08h-82.938c-7.157,0-12.959,5.802-12.959,12.959v110.583c0,7.157,5.802,12.959,12.959,12.959
		h82.938c7.156,0,12.959-5.802,12.959-12.959V349.039C537.365,341.882,531.563,336.08,524.406,336.08L524.406,336.08z
		 M511.447,361.998v15.551h-57.02v-15.551H511.447z M454.428,446.663v-43.196h57.02v43.196H454.428z"/>
</g>
</svg>
